<svg xmlns="http://www.w3.org/2000/svg" xmlns:xlink="http://www.w3.org/1999/xlink" fill="none" version="1.1"
  viewBox="0 0 256 256">
  <defs>
    <linearGradient x1="1" y1="1" x2="0" y2="0" id="bg_color">
      <stop offset="0%" stop-color="#333333" stop-opacity="1" />
      <stop offset="100%" stop-color="#4C4C4C" stop-opacity="1" />
    </linearGradient>
  </defs>
  <g>
    <g>
      <path
        d="M238.500439453125,50.65Q238.500439453125,51.4638,238.460539453125,52.2766Q238.420539453125,53.0894,238.340839453125,53.8993Q238.261039453125,54.7091,238.14163945312498,55.5141Q238.022239453125,56.3191,237.863439453125,57.1172Q237.704739453125,57.9154,237.506939453125,58.7048Q237.309239453125,59.4942,237.073039453125,60.2729Q236.836739453125,61.0517,236.562639453125,61.8179Q236.288439453125,62.5841,235.977039453125,63.3359Q235.665639453125,64.0878,235.317639453125,64.82339999999999Q234.969739453125,65.5591,234.58613945312499,66.27680000000001Q234.20253945312498,66.9945,233.784139453125,67.6925Q233.365739453125,68.3905,232.913639453125,69.06710000000001Q232.461539453125,69.7438,231.976739453125,70.3974Q231.49193945312498,71.05109999999999,230.97573945312502,71.68010000000001Q230.45943945312501,72.3092,229.912939453125,72.9122Q229.366439453125,73.51509999999999,228.791039453125,74.0906Q228.215539453125,74.666,227.61263945312498,75.2125Q227.009639453125,75.759,226.380539453125,76.2753Q225.751539453125,76.7915,225.097839453125,77.27629999999999Q224.444239453125,77.7611,223.767539453125,78.2132Q223.090939453125,78.6653,222.392939453125,79.0837Q221.69493945312502,79.5021,220.977239453125,79.8857Q220.259539453125,80.2693,219.523839453125,80.6172Q218.78823945312502,80.96520000000001,218.036339453125,81.2766Q217.284539453125,81.588,216.518339453125,81.8622Q215.75213945312498,82.1363,214.973339453125,82.3726Q214.194639453125,82.6088,213.405239453125,82.8065Q212.615839453125,83.0042,211.817639453125,83.163Q211.019539453125,83.3218,210.21453945312498,83.4412Q209.409539453125,83.5606,208.59973945312498,83.6404Q207.789839453125,83.7201,206.977039453125,83.76Q206.164239453125,83.8,205.350439453125,83.8Q204.536639453125,83.8,203.723839453125,83.76Q202.911039453125,83.7201,202.101139453125,83.6404Q201.291339453125,83.5606,200.486339453125,83.4412Q199.681339453125,83.3218,198.883239453125,83.163Q198.085039453125,83.0042,197.295639453125,82.8065Q196.506239453125,82.6088,195.727539453125,82.3726Q194.948739453125,82.1363,194.182539453125,81.8622Q193.416339453125,81.588,192.664439453125,81.2766Q191.912639453125,80.96520000000001,191.176939453125,80.6172Q190.441339453125,80.2693,189.723639453125,79.8857Q189.005939453125,79.5021,188.30793945312502,79.0837Q187.609939453125,78.6653,186.933239453125,78.2132Q186.256639453125,77.7611,185.603039453125,77.27629999999999Q184.949339453125,76.7915,184.320339453125,76.2753Q183.691239453125,75.759,183.088239453125,75.2125Q182.485239453125,74.666,181.909849453125,74.0906Q181.334409453125,73.51509999999999,180.787909453125,72.9122Q180.241399453125,72.3092,179.725139453125,71.68010000000001Q179.208879453125,71.05109999999999,178.724109453125,70.3974Q178.239339453125,69.7438,177.787219453125,69.06710000000001Q177.335109453125,68.3905,176.916739453125,67.6925Q176.498369453125,66.9945,176.114749453125,66.27680000000001Q175.731129453125,65.5591,175.383189453125,64.82339999999999Q175.035259453125,64.0878,174.723829453125,63.3359Q174.412409453125,62.5841,174.138249453125,61.8179Q173.864099453125,61.0517,173.627869453125,60.2729Q173.391639453125,59.4942,173.193903453125,58.7048Q172.996169453125,57.9154,172.837407453125,57.1172Q172.678645453125,56.3191,172.559238453125,55.5141Q172.439830453125,54.7091,172.360065453125,53.8993Q172.280300653125,53.0894,172.240370053125,52.2766Q172.200439453125,51.4638,172.200439453125,50.65Q172.200439453125,49.8362,172.240370053125,49.023399999999995Q172.280300653125,48.2106,172.360065453125,47.4007Q172.439830453125,46.590900000000005,172.559238453125,45.7859Q172.678645453125,44.9809,172.837407453125,44.1827Q172.996169453125,43.3846,173.193903453125,42.5952Q173.391639453125,41.805800000000005,173.627869453125,41.027100000000004Q173.864099453125,40.2483,174.138249453125,39.4821Q174.412409453125,38.715900000000005,174.723829453125,37.964Q175.035259453125,37.212199999999996,175.383189453125,36.4765Q175.731129453125,35.740899999999996,176.114749453125,35.0232Q176.498369453125,34.305499999999995,176.916739453125,33.6075Q177.335109453125,32.9095,177.787219453125,32.2328Q178.239339453125,31.5562,178.724109453125,30.9026Q179.208879453125,30.2489,179.725139453125,29.6199Q180.241399453125,28.9908,180.787909453125,28.3878Q181.334409453125,27.7848,181.909849453125,27.20941Q182.485239453125,26.633969999999998,183.088239453125,26.08747Q183.691239453125,25.54096,184.320339453125,25.0247Q184.949339453125,24.50844,185.603039453125,24.02367Q186.256639453125,23.538899999999998,186.933239453125,23.08678Q187.609939453125,22.63467,188.30793945312502,22.2163Q189.005939453125,21.79792,189.723639453125,21.41431Q190.441339453125,21.03069,191.176939453125,20.68275Q191.912639453125,20.33482,192.664439453125,20.02339Q193.416339453125,19.71197,194.182539453125,19.43781Q194.948739453125,19.16366,195.727539453125,18.92743Q196.506239453125,18.6912,197.295639453125,18.493464Q198.085039453125,18.29573,198.883239453125,18.136968Q199.681339453125,17.978206,200.486339453125,17.858799Q201.291339453125,17.739391,202.101139453125,17.659626Q202.911039453125,17.5798612,203.723839453125,17.5399306Q204.536639453125,17.5,205.350439453125,17.5Q206.164239453125,17.5,206.977039453125,17.5399306Q207.789839453125,17.5798612,208.59973945312498,17.659626Q209.409539453125,17.739391,210.21453945312498,17.858799Q211.019539453125,17.978206,211.817639453125,18.136968Q212.615839453125,18.29573,213.405239453125,18.493464Q214.194639453125,18.6912,214.973339453125,18.92743Q215.75213945312498,19.16366,216.518339453125,19.43781Q217.284539453125,19.71197,218.036339453125,20.02339Q218.78823945312502,20.33482,219.523839453125,20.68275Q220.259539453125,21.03069,220.977239453125,21.41431Q221.69493945312502,21.79793,222.392939453125,22.2163Q223.090939453125,22.63467,223.767539453125,23.08678Q224.444239453125,23.538899999999998,225.097839453125,24.02367Q225.751539453125,24.50844,226.380539453125,25.0247Q227.009639453125,25.54096,227.61263945312498,26.08747Q228.215539453125,26.633969999999998,228.791039453125,27.20941Q229.366439453125,27.7848,229.912939453125,28.3878Q230.45943945312501,28.9908,230.97573945312502,29.6199Q231.49203945312502,30.2489,231.976739453125,30.9026Q232.461539453125,31.5562,232.913639453125,32.2328Q233.365739453125,32.9095,233.784139453125,33.6075Q234.20253945312498,34.305499999999995,234.58613945312499,35.0232Q234.969739453125,35.740899999999996,235.317639453125,36.4765Q235.665639453125,37.212199999999996,235.977039453125,37.964Q236.288439453125,38.715900000000005,236.562639453125,39.4821Q236.836739453125,40.2483,237.073039453125,41.027100000000004Q237.309239453125,41.805800000000005,237.506939453125,42.5952Q237.704739453125,43.3846,237.863439453125,44.1827Q238.022239453125,44.9809,238.14163945312498,45.7859Q238.261039453125,46.590900000000005,238.340839453125,47.4007Q238.420539453125,48.2106,238.460539453125,49.023399999999995Q238.500439453125,49.8362,238.500439453125,50.65Z"
        fill="#B00020" fill-opacity="1" />
    </g>
    <g>
      <path
        d="M33.67671171875,222.312C49.87601171875,238.5,75.90981171875,238.5,127.99951171875,238.5C180.08951171875,238.5,206.13451171875,238.5,222.31151171875,222.312C238.49951171875,206.146,238.49951171875,180.09,238.49951171875,128C238.49951171875,112.5411,238.49951171875,99.3805,238.07951171875,88.0874C218.37951171875,105.3362,188.67751171875,104.352,170.16251171875,85.8368C151.64751171875,67.3215,150.66351171875,37.6203,167.91251171875,17.919903C156.61951171875,17.5,143.45851171875,17.5,127.99951171875,17.5C75.90981171875,17.5,49.86491171875,17.5,33.67671171875,33.6772C17.49951171875,49.8765,17.49951171875,75.9103,17.49951171875,128C17.49951171875,180.09,17.49951171875,206.135,33.67671171875,222.312Z"
        fill-rule="evenodd" fill="url(#bg_color)" fill-opacity="1" />
    </g>
    <g>
      <path
        d="M47.4131379475,148.564046953125Q47.3102608875,151.980426953125,49.8820896875,154.542726953125L66.1703796875,170.770626953125L50.0964196875,186.998526953125Q47.7389036875,189.347326953125,47.7389036875,192.977226953125Q47.7389036875,196.607126953125,50.0964196875,198.95592695312502Q52.6768096875,201.526726953125,56.2087796875,201.415726953125Q59.7407796875,201.304726953125,62.098279687499996,198.95592695312502L84.38747968749999,176.749326953125Q86.9592796875,174.18702695312498,86.9592796875,170.770626953125Q86.9592796875,167.354226953125,84.38747968749999,164.791926953125L62.098279687499996,142.585346953125Q59.5264796875,140.031589753125,56.0973496875,140.134081823125Q52.6682396875,140.236577953125,50.0964196875,142.585346953125Q47.5160076875,145.147646953125,47.4131379475,148.564046953125ZM94.6747796875,196.393626953125Q94.66627968750001,200.01502695312502,97.1351796875,202.474826953125Q99.6041796875,204.93462695312502,103.24757968750001,204.93462695312502L137.5386796875,204.93462695312502Q141.1734796875,204.943126953125,143.6423796875,202.48332695312502Q146.1113796875,200.02352695312499,146.1113796875,196.393626953125Q146.1199796875,192.772226953125,143.6509796875,190.312426953125Q141.1820796875,187.852626953125,137.5386796875,187.852626953125L103.24757968750001,187.852626953125Q99.61267968749999,187.844126953125,97.1437796875,190.303926953125Q94.6747796875,192.763726953125,94.6747796875,196.393626953125Z"
        fill="#FFFFFF" fill-opacity="1" />
    </g>
  </g>
</svg>
